<svg  version="1.2" baseProfile="tiny-ps" xmlns="http://www.w3.org/2000/svg" viewBox="0 0 1684 1190">
	<title>mercado-pago-seeklogo</title>
	<style>
		tspan { white-space:pre }
		.shp0 { fill: #ffffff } 
		.shp1 { fill: #000000 } 
	</style>
	<g id="Capa 1">
		<g id="&lt;Group&gt;">
			<g id="&lt;Group&gt;">
				<path id="&lt;Path&gt;" class="shp0" d="M567.98 283.91C567.98 233.88 505.82 193.1 429.14 193.1C352.47 193.1 290.31 233.88 290.31 283.91C290.31 285.2 290.3 288.77 290.3 289.23C290.3 342.3 344.63 385.28 429.13 385.28C514.15 385.28 567.98 342.31 567.98 289.24C567.98 287.38 567.98 286.31 567.98 283.91Z" />
				<path id="&lt;Path&gt;" class="shp1" d="M562.66 283.87C562.66 331.03 502.9 369.26 429.17 369.26C355.44 369.26 295.68 331.03 295.68 283.87C295.68 236.7 355.44 198.46 429.17 198.46C502.9 198.46 562.66 236.7 562.66 283.87Z" />
				<g id="&lt;Group&gt;">
					<path id="&lt;Path&gt;" class="shp0" d="M384.84 256.92C384.77 257.06 383.44 258.43 384.3 259.54C386.41 262.23 392.92 263.78 399.5 262.3C403.42 261.42 408.44 257.43 413.3 253.57C418.57 249.38 423.8 245.18 429.06 243.52C434.63 241.74 438.2 242.5 440.55 243.22C443.14 243.99 446.18 245.69 451.03 249.33C460.16 256.2 496.89 288.25 503.24 293.8C508.35 291.49 531.06 281.71 561.93 274.91C559.25 258.45 549.24 243.39 534.06 231.07C512.9 239.95 487.04 244.59 461.75 232.24C461.63 232.19 447.94 225.71 434.44 226.03C414.38 226.49 405.69 235.18 396.49 244.37L384.84 256.92Z" />
					<path id="&lt;Path&gt;" class="shp0" d="M501.74 297.28C501.31 296.9 458.56 259.49 448.87 252.21C443.27 248 440.15 246.93 436.88 246.51C435.17 246.29 432.82 246.61 431.17 247.06C426.66 248.29 420.77 252.23 415.54 256.37C410.13 260.69 405.02 264.75 400.28 265.81C394.23 267.17 386.83 265.57 383.46 263.29C382.09 262.37 381.13 261.3 380.67 260.22C379.42 257.34 381.72 255.03 382.1 254.64L393.9 241.88C395.27 240.51 396.65 239.14 398.06 237.79C394.26 238.29 390.74 239.26 387.31 240.21C383.04 241.41 378.93 242.56 374.77 242.55C373.03 242.55 363.72 241.03 361.96 240.55C351.28 237.63 341.91 234.78 327.91 228.25C311.14 240.73 299.92 256.35 296.68 273.54C299.09 274.18 302.97 275.34 304.61 275.7C342.56 284.14 354.39 292.83 356.53 294.65C358.85 292.06 362.2 290.43 365.94 290.43C370.14 290.43 373.93 292.54 376.23 295.8C378.4 294.09 381.4 292.62 385.27 292.62C387.03 292.62 388.86 292.95 390.7 293.58C394.99 295.05 397.2 297.9 398.34 300.48C399.78 299.83 401.55 299.35 403.63 299.36C405.67 299.36 407.8 299.82 409.94 300.75C416.94 303.75 418.03 310.63 417.39 315.81C417.89 315.75 418.39 315.73 418.9 315.73C427.2 315.73 433.95 322.48 433.94 330.78C433.94 333.35 433.29 335.76 432.14 337.88C434.4 339.15 440.16 342.03 445.21 341.38C449.25 340.88 450.78 339.5 451.33 338.72C451.7 338.19 452.1 337.56 451.73 337.12L441.02 325.22C439.85 324.1 439.45 323.33 439.84 322.91C440.45 322.25 441.54 323.19 442.31 323.84C445.94 326.87 449.98 330.68 454.41 335.26C454.53 335.33 454.97 336.2 457.43 336.65C459.55 337.03 463.3 336.8 465.89 334.67C466.55 334.13 467.2 333.46 467.75 332.77C467.71 332.8 467.67 332.85 467.63 332.86C469.46 330.53 469.36 328.18 467.33 325.81L454.82 311.77C453.63 310.67 453.24 309.9 453.64 309.45C454.19 308.88 455.34 309.75 456.12 310.4C460.08 313.71 465.67 319.32 471.04 324.57C472.08 325.34 476.8 328.26 483.03 324.16C486.82 321.67 487.58 318.62 487.47 316.32C487.3 314.29 486.42 312.55 484.83 311.1L467.75 293.93C466.55 292.9 466.16 292.13 466.58 291.61C467.11 290.95 468.28 291.9 469.05 292.54C472.67 295.58 479.4 301.6 489.22 310.6C489.43 310.75 494.52 314.37 500.8 310.37C503.05 308.93 504.49 306.76 504.61 304.25C504.76 301.33 503.8 299.01 501.74 297.28Z" />
					<path id="&lt;Path&gt;" class="shp0" d="M418.9 319.05C416.25 319.02 413.35 320.59 412.97 320.37C412.77 320.23 413.14 319.16 413.38 318.55C413.64 317.94 417.13 307.45 408.63 303.8C402.12 301 398.14 304.15 396.78 305.57C396.42 305.94 396.26 305.91 396.21 305.44C396.08 303.55 395.24 298.44 389.62 296.72C381.6 294.27 376.44 299.87 375.13 301.89C374.54 297.31 370.68 293.76 365.94 293.76C360.79 293.75 356.62 297.92 356.61 303.07C356.61 308.21 360.78 312.38 365.93 312.38C368.43 312.39 370.7 311.39 372.37 309.79C372.42 309.83 372.44 309.92 372.42 310.1C372.03 312.4 371.3 320.78 380.07 324.18C383.59 325.55 386.58 324.53 389.05 322.8C389.79 322.27 389.91 322.49 389.81 323.19C389.49 325.34 389.89 329.95 396.36 332.57C401.27 334.57 404.18 332.53 406.09 330.76C406.92 330.01 407.15 330.13 407.19 331.3C407.42 337.53 412.6 342.48 418.88 342.48C425.36 342.49 430.61 337.25 430.61 330.78C430.62 324.3 425.37 319.12 418.9 319.05Z" />
				</g>
				<path id="&lt;Compound Path&gt;" fill-rule="evenodd" class="shp1" d="M561.82 273.82C562.17 275.73 562.45 277.64 562.6 279.58C537.62 285.21 516.41 292.95 507.13 296.94C508.53 299.25 509.19 301.93 508.97 304.59C508.66 308.5 506.59 311.86 503.16 314.05C500.47 315.76 497.66 316.63 494.79 316.63C493.81 316.63 492.82 316.52 491.85 316.32C491.94 319.43 490.98 324.17 485.44 327.8C482.57 329.68 479.56 330.63 476.51 330.63C475.53 330.63 474.55 330.53 473.6 330.34C473.59 330.37 473.59 330.41 473.58 330.44C473.29 332.94 471.28 335.86 468.45 337.9C465.58 340 462.73 341.01 459.76 341.01C458.14 341.01 456.73 340.71 455.45 340.34C455.29 340.66 455.1 340.96 454.89 341.25C453.73 342.9 451.2 345.03 445.77 345.71C445.1 345.79 444.44 345.84 443.73 345.84C438.26 345.84 432.85 343.26 430.28 341.83C427.28 344.91 423.17 346.66 418.89 346.65C412.44 346.65 406.64 342.72 404.21 336.8C402.89 337.28 401.51 337.53 400.1 337.53C398.37 337.53 396.58 337.15 394.8 336.44C389.72 334.38 387.45 331.18 386.44 328.61C385.43 328.87 384.4 329 383.38 329C381.79 329 380.17 328.68 378.57 328.07C373.11 325.94 369.53 321.8 368.41 316.33C367.6 316.48 366.77 316.55 365.94 316.55C358.5 316.55 352.46 310.5 352.47 303.07C352.47 301.29 352.82 299.53 353.5 297.9C351.5 296.33 339.62 288.02 303.66 280.04C302.8 279.84 300.21 279.23 295.89 278.19C296.09 276.25 296.39 274.32 296.79 272.42C299.18 273.12 303.1 274.24 304.8 274.63C340 282.62 353.15 290.97 356.47 293.51C359 291 362.41 289.58 365.95 289.58C370.01 289.58 373.86 291.46 376.41 294.63C379.07 292.74 382.05 291.78 385.29 291.78C387.14 291.78 389.06 292.12 390.99 292.79C394.48 293.98 397.16 296.26 398.77 299.39C400.31 298.8 401.94 298.51 403.64 298.51C405.81 298.51 408.04 299.01 410.28 299.97C418.06 303.31 418.63 310.89 418.34 314.89C418.53 314.89 418.73 314.88 418.91 314.88C427.68 314.89 434.8 322.02 434.8 330.79C434.8 333.11 434.28 335.43 433.28 337.54C435.47 338.7 439.72 340.63 443.7 340.63C444.18 340.63 444.66 340.61 445.12 340.55C448.98 340.06 450.28 338.77 450.66 338.24C450.91 337.87 451.05 337.63 451.06 337.52L440.41 325.78C439.75 325.16 438.2 323.47 439.24 322.34C439.54 322.01 439.93 321.84 440.36 321.84C441.25 321.84 442.11 322.56 442.79 323.14C448 327.49 454.3 333.91 454.98 334.62L455.13 334.78C455.53 335.25 456.36 335.59 457.59 335.81C458.09 335.9 458.68 335.96 459.28 335.96C460.4 335.96 463.25 335.77 465.38 334.02C465.76 333.69 466.17 333.31 466.54 332.9L466.98 332.34C469.28 329.42 466.8 326.48 466.7 326.36L454.21 312.33C453.9 312.04 453.61 311.72 453.35 311.37C452.38 310.09 452.65 309.31 453.04 308.88C453.33 308.58 453.7 308.43 454.12 308.43C454.96 308.43 455.84 309.06 456.67 309.75C460.06 312.58 464.69 317.14 469.18 321.56L471.63 323.98C472.04 324.26 473.89 325.46 476.52 325.46C478.52 325.46 480.56 324.78 482.58 323.45C485.42 321.59 486.78 319.21 486.64 316.36C486.41 313.72 484.3 311.74 484.28 311.72L467.17 294.52C466.05 293.57 465.1 292.12 465.95 291.08C466.22 290.74 466.62 290.55 467.07 290.55C467.91 290.55 468.74 291.19 469.6 291.9C474.99 296.41 489.64 309.85 489.8 309.97C489.93 310.07 491.9 311.4 494.75 311.41C496.66 311.41 498.54 310.82 500.37 309.66C502.47 308.32 503.68 306.38 503.78 304.2C503.97 300.29 501.25 297.94 501.22 297.92C500.8 297.55 458.04 260.14 448.38 252.88C442.95 248.81 439.92 247.75 436.78 247.35C436.44 247.3 436.07 247.29 435.67 247.28C434.36 247.28 432.73 247.51 431.4 247.87C426.65 249.16 420.45 253.57 416.08 257.04C410.59 261.4 405.42 265.53 400.48 266.63C398.94 266.98 397.27 267.16 395.5 267.15C390.83 267.15 385.81 265.87 383 263.98C381.51 262.97 380.44 261.79 379.91 260.55C378.58 257.47 380.59 254.98 381.52 254.04L393.29 241.31C394.05 240.54 394.81 239.79 395.58 239.04C392.72 239.59 390.01 240.34 387.55 241.03C383.39 242.19 379.09 243.4 374.78 243.4C372.85 243.4 370.92 243.19 369.11 243.07C362.59 242.65 341.95 237.27 324.99 230.32C326.55 229.09 328.14 227.88 329.8 226.7C346.03 232.85 366.44 237.85 370.49 237.98C370.73 237.98 373.34 238.12 374.79 238.12C378.31 238.12 381.92 237.11 386.11 235.95C390.79 234.64 396.06 233.17 402.17 233.02C408.44 227.86 417.78 221.98 434.35 221.59C434.72 221.58 435.1 221.58 435.46 221.58C449.57 221.58 463.13 227.98 463.7 228.25C474.5 233.52 485.64 236.2 496.78 236.21C507.69 236.21 518.99 233.61 530.86 228.47C532.47 229.68 534.04 230.91 535.55 232.18C522.04 238.4 509.2 241.48 496.74 241.48C484.8 241.47 472.91 238.62 461.39 233C460.02 232.36 447.74 226.87 435.46 226.86C435.13 226.86 434.8 226.86 434.47 226.87C414.74 227.33 406.17 235.89 397.1 244.97L385.51 257.46L385.44 257.55C384.89 258.24 384.75 258.72 384.98 259.02C386.39 260.82 390.15 262.03 394.34 262.03C396.02 262.03 397.7 261.84 399.33 261.48C403.07 260.64 408.01 256.71 412.79 252.91L413.06 252.7C418.19 248.62 423.5 244.4 428.83 242.71C431.18 241.96 433.43 241.59 435.53 241.59C437.78 241.59 439.54 242.02 440.8 242.41C443.62 243.25 446.84 245.12 451.55 248.66C459.79 254.85 490.23 281.31 503.4 292.8C509.05 290.29 531.6 280.53 561.82 273.82ZM429.79 330.78C429.79 324.84 424.91 319.96 418.9 319.89L418.9 319.89C417.37 319.89 415.73 320.45 414.64 320.83C413.91 321.08 413.46 321.23 413.1 321.23L412.87 321.23L412.55 321.08C411.91 320.66 411.94 319.91 412.62 318.23C412.66 318.13 416.28 307.99 408.31 304.57C406.68 303.88 405.11 303.53 403.63 303.52C400.41 303.52 398.34 305.16 397.4 306.15C397.17 306.39 396.85 306.66 396.42 306.66C396.26 306.66 395.48 306.61 395.39 305.51C395.26 303.61 394.41 299.06 389.39 297.53C388.14 297.14 386.91 296.95 385.71 296.95C379.42 296.95 375.99 302.12 375.85 302.35L374.6 304.27L374.31 302C373.77 297.78 370.18 294.6 365.95 294.6C361.28 294.6 357.47 298.39 357.47 303.07C357.46 307.74 361.27 311.54 365.94 311.55C368.13 311.55 370.21 310.7 371.8 309.17L372.34 308.66L372.91 309.13C373.21 309.37 373.33 309.74 373.27 310.21C372.87 312.53 372.23 320.23 380.39 323.4C381.38 323.78 382.36 323.98 383.32 323.98C385.07 323.98 386.79 323.37 388.58 322.11C389.02 321.8 389.35 321.67 389.66 321.67L390.05 321.67L390.43 322.01C390.74 322.38 390.72 322.85 390.65 323.31C390.4 325.02 390.49 329.28 396.68 331.79C397.93 332.3 399.11 332.55 400.2 332.55C402.6 332.55 404.24 331.34 405.53 330.14C405.99 329.72 406.39 329.45 406.86 329.45C407.98 329.45 408.03 330.77 408.04 331.27C408.26 337.08 413.03 341.64 418.9 341.65C424.9 341.65 429.78 336.78 429.79 330.78Z" />
			</g>
		</g>
	</g>
</svg>